<?xml version="1.0" encoding="UTF-8" standalone="no"?>
<!-- Created with Inkscape (http://www.inkscape.org/) -->

<svg
   xmlns:dc="http://purl.org/dc/elements/1.1/"
   xmlns:cc="http://creativecommons.org/ns#"
   xmlns:rdf="http://www.w3.org/1999/02/22-rdf-syntax-ns#"
   xmlns:svg="http://www.w3.org/2000/svg"
   xmlns="http://www.w3.org/2000/svg"
   xmlns:xlink="http://www.w3.org/1999/xlink"
   xmlns:sodipodi="http://sodipodi.sourceforge.net/DTD/sodipodi-0.dtd"
   xmlns:inkscape="http://www.inkscape.org/namespaces/inkscape"
   width="744.09448819"
   height="1052.3622047"
   id="svg2"
   version="1.1"
   inkscape:version="0.48.4 r9939"
   sodipodi:docname="snowthings.svg">
  <defs
     id="defs4">
    <linearGradient
       id="linearGradient3755">
      <stop
         id="stop3763"
         offset="0"
         style="stop-color:#ffffff;stop-opacity:1;" />
      <stop
         style="stop-color:#fdfdfd;stop-opacity:1;"
         offset="0.69999999"
         id="stop3765" />
      <stop
         style="stop-color:#acacac;stop-opacity:1;"
         offset="1"
         id="stop3759" />
    </linearGradient>
    <radialGradient
       inkscape:collect="always"
       xlink:href="#linearGradient3755"
       id="radialGradient3769"
       cx="220.74902"
       cy="145.31853"
       fx="220.74902"
       fy="145.31853"
       r="77.285713"
       gradientUnits="userSpaceOnUse"
       gradientTransform="matrix(1.1758975,0,0,1.1968616,-38.470892,-27.910253)" />
    <radialGradient
       inkscape:collect="always"
       xlink:href="#linearGradient3755-7"
       id="radialGradient3769-1"
       cx="220.74902"
       cy="145.31853"
       fx="220.74902"
       fy="145.31853"
       r="77.285713"
       gradientUnits="userSpaceOnUse"
       gradientTransform="matrix(1.1758975,0,0,1.1968616,-38.470892,-27.910253)" />
    <linearGradient
       id="linearGradient3755-7">
      <stop
         id="stop3763-4"
         offset="0"
         style="stop-color:#ffffff;stop-opacity:1;" />
      <stop
         style="stop-color:#fdfdfd;stop-opacity:1;"
         offset="0.69999999"
         id="stop3765-0" />
      <stop
         style="stop-color:#acacac;stop-opacity:1;"
         offset="1"
         id="stop3759-9" />
    </linearGradient>
    <radialGradient
       r="77.285713"
       fy="145.31853"
       fx="220.74902"
       cy="145.31853"
       cx="220.74902"
       gradientTransform="matrix(1.1758975,0,0,1.1968616,-38.470892,-27.910253)"
       gradientUnits="userSpaceOnUse"
       id="radialGradient3791"
       xlink:href="#linearGradient3755-7"
       inkscape:collect="always" />
    <radialGradient
       inkscape:collect="always"
       xlink:href="#linearGradient3755-8"
       id="radialGradient3769-8"
       cx="220.74902"
       cy="145.31853"
       fx="220.74902"
       fy="145.31853"
       r="77.285713"
       gradientUnits="userSpaceOnUse"
       gradientTransform="matrix(1.1758975,0,0,1.1968616,-38.470892,-27.910253)" />
    <linearGradient
       id="linearGradient3755-8">
      <stop
         id="stop3763-2"
         offset="0"
         style="stop-color:#ffffff;stop-opacity:1;" />
      <stop
         style="stop-color:#fdfdfd;stop-opacity:1;"
         offset="0.69999999"
         id="stop3765-4" />
      <stop
         style="stop-color:#acacac;stop-opacity:1;"
         offset="1"
         id="stop3759-5" />
    </linearGradient>
    <radialGradient
       r="77.285713"
       fy="145.31853"
       fx="220.74902"
       cy="145.31853"
       cx="220.74902"
       gradientTransform="matrix(1.1758975,0,0,1.1968616,-38.470892,-27.910253)"
       gradientUnits="userSpaceOnUse"
       id="radialGradient3791-5"
       xlink:href="#linearGradient3755-8"
       inkscape:collect="always" />
  </defs>
  <sodipodi:namedview
     id="base"
     pagecolor="#ffffff"
     bordercolor="#666666"
     borderopacity="1.0"
     inkscape:pageopacity="0.0"
     inkscape:pageshadow="2"
     inkscape:zoom="4"
     inkscape:cx="93.10176"
     inkscape:cy="562.73631"
     inkscape:document-units="px"
     inkscape:current-layer="layer1"
     showgrid="true"
     inkscape:window-width="1920"
     inkscape:window-height="1028"
     inkscape:window-x="-8"
     inkscape:window-y="-8"
     inkscape:window-maximized="1">
    <inkscape:grid
       type="xygrid"
       id="grid4266"
       empspacing="16"
       visible="true"
       enabled="true"
       snapvisiblegridlinesonly="true" />
  </sodipodi:namedview>
  <metadata
     id="metadata7">
    <rdf:RDF>
      <cc:Work
         rdf:about="">
        <dc:format>image/svg+xml</dc:format>
        <dc:type
           rdf:resource="http://purl.org/dc/dcmitype/StillImage" />
        <dc:title></dc:title>
      </cc:Work>
    </rdf:RDF>
  </metadata>
  <g
     inkscape:label="Layer 1"
     inkscape:groupmode="layer"
     id="layer1">
    <path
       sodipodi:type="arc"
       style="fill:url(#radialGradient3769);fill-opacity:1;stroke:#000000;stroke-width:2;stroke-miterlimit:4;stroke-dasharray:none"
       id="path2985"
       sodipodi:cx="229.64285"
       sodipodi:cy="159.86218"
       sodipodi:rx="76.785713"
       sodipodi:ry="76.785713"
       d="m 306.42857,159.86218 a 76.785713,76.785713 0 1 1 -153.57143,0 76.785713,76.785713 0 1 1 153.57143,0 z"
       transform="translate(131.09681,141.42857)" />
    <path
       sodipodi:type="arc"
       style="fill:url(#radialGradient3791);fill-opacity:1;stroke:#000000;stroke-width:2.2686007;stroke-miterlimit:4;stroke-dasharray:none"
       id="path2985-4"
       sodipodi:cx="229.64285"
       sodipodi:cy="159.86218"
       sodipodi:rx="76.785713"
       sodipodi:ry="76.785713"
       d="m 306.42857,159.86218 a 76.785713,76.785713 0 1 1 -153.57143,0 76.785713,76.785713 0 1 1 153.57143,0 z"
       transform="matrix(0.88160073,0,0,0.88160073,157.161,90.173554)" />
    <path
       sodipodi:type="arc"
       style="fill:url(#radialGradient3791-5);fill-opacity:1;stroke:#000000;stroke-width:2.98012352;stroke-miterlimit:4;stroke-dasharray:none"
       id="path2985-1"
       sodipodi:cx="229.64285"
       sodipodi:cy="159.86218"
       sodipodi:rx="76.785713"
       sodipodi:ry="76.785713"
       d="m 306.42857,159.86218 a 76.785713,76.785713 0 1 1 -153.57143,0 76.785713,76.785713 0 1 1 153.57143,0 z"
       transform="matrix(0.67111312,0,0,0.67111312,205.49798,49.071267)" />
    <path
       style="fill:#ffffff;stroke:none;stroke-width:0.10000000000000001;stroke-miterlimit:4;stroke-opacity:1;stroke-dasharray:none;stroke-dashoffset:0"
       d="m 139.53024,477.56897 -0.98707,1.31474 -1.60686,0.18161 1.57008,0.21844 -1.56861,2.42801 -1.25099,-0.72869 -1.16548,0.7055 -1.45812,-2.2832 1.50087,-0.11661 -1.59328,-0.27898 -0.91243,-1.37309 0.56233,1.56018 -0.69792,1.49896 1.02098,-1.27043 1.2008,2.49077 -1.31314,0.79448 0.009,1.36636 -2.50747,0.14972 0.65965,-1.41037 -1.03292,1.27982 -1.61037,0.12576 1.59332,0.27898 0.90911,1.37374 -0.54547,-1.52474 2.53725,0.16675 0.0139,1.6052 1.20309,0.70113 -1.12472,2.30344 -0.86034,-1.29535 0.5623,1.56018 -0.69985,1.49759 1.03096,-1.28117 1.61033,-0.12603 -1.55774,-0.27191 1.40381,-2.17359 1.3146,0.76719 1.26545,-0.7657 1.38132,2.16453 -1.53295,0.17409 1.60165,0.22274 0.95613,1.34155 -0.6132,-1.53955 0.65067,-1.52306 -0.95845,1.27564 -1.12228,-2.33542 1.22839,-0.74429 -0.009,-1.53868 2.78174,-0.16517 -0.65719,1.43281 1.02445,-1.2887 1.60979,-0.13805 -1.59606,-0.26614 -0.91968,-1.36633 0.56251,1.53368 -2.80927,-0.18516 -0.0119,-1.42947 -1.25296,-0.73009 1.26209,-2.58583 0.91445,1.28289 -0.61322,-1.53955 0.64931,-1.52107 z m -1.62006,5.59904 -0.008,1.28887 -0.008,1.28889 -1.08718,0.63893 -1.09045,0.6396 -1.07896,-0.64993 -1.08224,-0.64925 0.008,-1.28887 0.008,-1.28889 1.08914,-0.63758 1.08851,-0.64098 1.08093,0.6513 1.08028,0.64791 z"
       id="path3831"
       inkscape:connector-curvature="0"
       inkscape:export-filename="C:\Users\dcolgan\Desktop\Art\LudumDare31\rect4197.png"
       inkscape:export-xdpi="89.193573"
       inkscape:export-ydpi="89.193573" />
    <path
       style="fill:#ffffff;stroke:none;stroke-width:0.10000000000000001;stroke-miterlimit:4;stroke-opacity:1;stroke-dasharray:none;stroke-dashoffset:0"
       d="m 115.99111,477.39444 0.49192,1.02728 -0.38459,0.67581 -1.14927,0.0406 1.16715,0.0903 0.36671,0.63076 -0.55899,1.06329 0.67524,-0.9957 0.7021,0 0.15653,0.25229 0.99274,1.9599 -1.18057,0.70735 0.0119,1.30209 -2.00342,0.0903 -0.20117,-0.0138 -0.34879,-0.60373 0.5724,-1.08583 -0.68866,1.00922 -0.67526,0.004 -0.65736,-1.05879 0.50533,1.05879 -0.3667,0.64427 -1.18504,0.0406 1.11349,0.0856 -0.008,0.0138 0.398,0.68935 -0.52322,0.99568 0.61265,-0.90109 0.81836,-0.004 0.59029,0.94617 -0.49638,-1.03627 0.38011,-0.66682 0.1254,-0.004 2.04366,0.10811 0.0119,1.38767 1.1269,0.6398 -0.96145,1.86077 -0.13866,0.20274 -0.75127,0.004 -0.62159,-1.00023 0.48297,1.00924 -0.39801,0.69385 -1.1314,0.0406 1.1135,0.0856 0.39802,0.68936 -0.53215,1.00923 0.65287,-0.95966 0.74681,0 0.62159,1.0002 -0.51873,-1.08132 0.35329,-0.61726 1.20737,-0.045 -1.18503,-0.0947 -0.35775,-0.61277 0.1254,-0.23876 1.1582,-1.79767 1.19848,0.68031 1.11796,-0.67132 1.13586,1.79317 0.13411,0.28385 -0.36221,0.63978 -1.18505,0.045 1.13586,0.0856 0.38457,0.66231 -0.54557,1.03626 0.63949,-0.94166 0.77363,0 0.60816,0.9822 -0.4919,-1.03175 0.37566,-0.6713 1.16267,-0.0406 -1.15821,-0.0856 -0.37118,-0.64879 0.55005,-1.0498 -0.66182,0.97769 -0.72894,0 -0.13409,-0.22076 -1.00169,-1.96891 1.18502,-0.71185 -0.0119,-1.30208 2.24933,-0.10374 0.35775,0.61723 -0.55896,1.06332 0.67523,-0.99123 0.7021,-0.004 0.64395,1.04076 -0.5098,-1.0678 0.3622,-0.63527 1.19401,-0.0405 -1.1269,-0.0903 -0.38904,-0.67133 0.54106,-1.02273 -0.62605,0.91911 -0.79599,0.004 -0.59923,-0.96417 0.48742,1.02722 -0.38457,0.67587 -0.57685,0.0226 -1.65016,-0.0856 -0.0179,-1.39219 -1.12692,-0.63977 1.06434,-2.06354 0.004,0 0.60373,-0.004 0.6931,1.11285 -0.5366,-1.12635 0.32642,-0.57221 1.25216,-0.045 -1.17612,-0.0903 0.0359,-0.0631 -0.36223,-0.62627 0.5277,-1.00471 -0.59924,0.87858 -0.0179,-0.0314 -0.84967,0.004 -0.5545,-0.89209 0.46061,0.96869 -0.40249,0.70737 0.0119,0.0271 -1.11798,0.0406 1.19401,0.0903 0.35328,0.61275 -0.29068,0.5497 -0.88543,1.37866 -1.19846,-0.68031 -1.11798,0.67128 -1.14033,-1.8067 -0.1341,-0.27482 0.36223,-0.63527 1.19399,-0.0451 -1.12692,-0.0856 -0.38903,-0.67584 0.53661,-1.02278 -0.62606,0.92366 -0.79599,0 -0.59923,-0.9642 z m 0.6529,1.16694 0.66182,0.004 0.32646,0.58573 -0.33985,0.57218 -0.66185,-0.004 -0.32645,-0.5857 0.33987,-0.5722 z m 5.71057,0.14397 0.66184,0.008 0.32645,0.58122 -0.33985,0.5767 -0.66185,-0.008 -0.32645,-0.58122 0.33986,-0.5767 z m -2.45953,3.64945 1.64566,0.95517 0.004,1.91935 -1.64565,0.96867 -1.65011,-0.95515 0,-1.91937 1.64563,-0.96867 z m 5.3126,1.33814 0.66182,0.008 0.32647,0.5812 -0.33541,0.57668 -0.66631,-0.008 -0.32643,-0.58123 0.33986,-0.57669 z m -11.27361,0.0362 0.66185,0.009 0.32645,0.58122 -0.33986,0.5767 -0.66185,-0.008 -0.32645,-0.58119 0.33986,-0.57671 z m 2.6384,4.98757 0.66185,0.008 0.32645,0.58122 -0.33988,0.57671 -0.66182,-0.009 -0.32643,-0.58119 0.33983,-0.57671 z m 5.85369,0.14873 0.66185,0.004 0.32645,0.58571 -0.33986,0.57219 -0.66186,-0.004 -0.32644,-0.58572 0.33986,-0.57219 z"
       id="path3923"
       inkscape:connector-curvature="0"
       inkscape:export-filename="C:\Users\dcolgan\Desktop\Art\LudumDare31\rect4197.png"
       inkscape:export-xdpi="89.193573"
       inkscape:export-ydpi="89.193573" />
    <path
       style="fill:#ffffff;stroke:none;stroke-width:0.10000000000000001;stroke-miterlimit:4;stroke-opacity:1;stroke-dasharray:none;stroke-dashoffset:0"
       d="m 84.39506,476.63227 c -0.005,-6.7e-4 -0.0119,10e-4 -0.0179,0.004 -0.16862,0.0822 0.70898,1.58505 0.60717,1.7486 -0.10171,0.16358 -1.72645,-0.14973 -1.73416,0.0511 -0.005,0.17745 1.6014,0.26397 1.96874,0.26075 0.009,-0.0513 0.0159,-0.0834 0.0275,-0.11767 0.46758,0.95315 1.05898,2.11951 1.56396,3.13414 l -2.31835,-1.21174 0.598,1.85083 -1.63754,0.53174 2.15273,1.05324 0.0119,0.0614 c -1.04048,-0.0429 -2.25379,-0.10401 -3.24288,-0.13803 0.0159,-0.0466 0.067,-0.0931 0.13787,-0.16874 -0.0661,-0.12484 -0.67102,-1.78207 -0.84179,-1.68212 -0.1706,0.10002 0.62305,1.54239 0.51521,1.71788 -0.0856,0.13922 -1.08345,0.0678 -1.50876,0.1327 -0.10276,0.009 -0.17417,0.0138 -0.17457,0.0358 -0.0139,0.009 -0.0264,0.0264 -0.0274,0.041 -0.0159,0.20409 1.59891,0.0828 1.67893,0.26075 0.0801,0.17784 -0.95047,1.61384 -0.79578,1.71788 0.13668,0.0919 0.98056,-1.43487 1.1546,-1.79458 -0.0279,-0.0284 -0.0403,-0.0438 -0.0597,-0.0663 0.94897,0.0241 2.08561,0.0309 3.08191,0.0511 l -2.06996,1.60031 1.73415,0.35278 -0.39098,1.84059 1.88595,-1.55428 0.0506,0.0208 c -0.57544,1.02046 -1.26833,2.228 -1.80315,3.1904 -0.0139,-0.0442 -0.0238,-0.10082 -0.0369,-0.184 -0.12183,-0.008 -1.50706,-0.32996 -1.69738,-0.19428 -0.0119,0.008 -0.0216,0.0273 -0.0228,0.041 -0.0212,0.21334 1.49779,0.28313 1.56858,0.48058 0.0709,0.19746 -0.93908,1.56366 -0.79576,1.69233 0.14342,0.12894 0.95413,-1.4314 1.13156,-1.40599 0.17754,0.0253 0.67776,1.77699 0.84175,1.6923 0.14501,-0.0748 -0.53705,-1.69913 -0.70837,-2.06043 -0.0553,0.0158 -0.0928,0.0208 -0.12859,0.0257 0.51916,-0.94442 1.1563,-2.14358 1.70657,-3.15968 l 0.22079,2.81201 1.13615,-1.49803 1.22819,1.30375 -0.25299,-2.59217 0.008,-0.009 c 0.50246,1.05474 1.08015,2.30097 1.55934,3.29265 -0.0466,0.005 -0.10316,-0.0159 -0.2025,-0.0511 -0.0662,0.12443 -1.07658,1.51815 -0.91536,1.63608 0.16128,0.1178 0.90445,-1.34951 1.09475,-1.32931 0.19045,0.0208 0.83435,1.63211 1.00277,1.54917 0.16842,-0.0829 -0.70855,-1.5796 -0.60717,-1.74343 0.10131,-0.16378 1.72695,0.13942 1.73416,-0.0616 0.005,-0.17744 -1.61063,-0.2549 -1.97794,-0.25055 -0.005,0.0333 -0.005,0.0507 -0.0119,0.0767 -0.4786,-0.97281 -1.08661,-2.15384 -1.59155,-3.16992 l 2.35513,1.23218 -0.60259,-1.85594 1.64216,-0.53171 -2.10673,-1.02768 c 1.02233,0.0423 2.19854,0.0935 3.16932,0.12775 -0.0282,0.035 -0.0673,0.0755 -0.12422,0.12775 0.0575,0.12973 0.54972,1.83909 0.72676,1.75364 0.17715,-0.0856 -0.51965,-1.59788 -0.4002,-1.7639 0.11919,-0.16597 1.69973,0.12536 1.72954,-0.0767 0.003,-0.0208 -0.0139,-0.0386 -0.046,-0.056 0.008,-0.004 0.0119,-0.008 0.0119,-0.0158 7.7e-4,-0.0378 -0.1712,-0.0736 -0.45997,-0.097 -0.009,-10e-4 -0.022,0.001 -0.0323,0 -0.009,-8.3e-4 -0.026,-0.004 -0.0369,-0.004 -0.46499,-0.0618 -1.05896,-0.0998 -1.09932,-0.2097 -0.0678,-0.18399 1.05799,-1.53475 0.91072,-1.65144 -0.0159,-0.0138 -0.049,2e-5 -0.0875,0.0306 -0.26949,0.21424 -1.00903,1.36565 -1.18215,1.66674 0.0422,0.0498 0.071,0.0787 0.092,0.11263 -0.99552,-0.0261 -2.21841,-0.0446 -3.25672,-0.0666 l 2.17575,-1.67699 -1.74334,-0.34767 0.3956,-1.83549 -1.86754,1.52362 c 0.55036,-0.97451 1.20251,-2.09605 1.71574,-3.01654 0.0119,0.0414 0.0224,0.0931 0.0369,0.1636 0.13017,0.001 1.70891,0.29089 1.72035,0.0767 0.009,-0.21424 -1.50769,-0.20531 -1.58695,-0.39878 -0.0283,-0.0692 0.0927,-0.31732 0.23,-0.58798 0.005,-0.0138 0.0159,-0.0226 0.0228,-0.0358 0.29802,-0.55346 0.48062,-0.92711 0.46919,-1.0021 0.0139,-0.0586 0.0212,-0.10122 0,-0.11767 -0.14858,-0.12085 -0.88885,1.473 -1.06718,1.45711 -0.17834,-0.0158 -0.75063,-1.72429 -0.91079,-1.63095 -0.14124,0.0824 0.59984,1.66783 0.78661,2.01954 0.0614,-0.0208 0.1,-0.0354 0.13807,-0.041 -0.51517,0.93877 -1.12677,2.10448 -1.66516,3.09834 l -0.22997,-2.9143 -1.13618,1.51852 -1.23274,-1.32422 0.25758,2.59218 -0.0228,0.0257 c -0.49922,-1.04917 -1.07448,-2.27748 -1.54556,-3.25173 0.0454,-1.6e-4 0.10157,0.0309 0.18866,0.0614 0.0666,-0.12417 1.08553,-1.50742 0.92457,-1.62587 -0.16089,-0.11847 -0.91827,1.33991 -1.10857,1.3191 -0.18409,-0.0208 -0.78862,-1.53929 -0.97974,-1.55939 z m 3.48208,5.02072 0.63937,1.21689 1.25578,-0.16358 -0.63021,1.22192 0.75901,1.12994 -1.26959,0.004 -0.50138,1.29353 -0.63478,-1.21684 -1.26037,0.16358 0.63021,-1.22195 -0.75442,-1.12991 1.26499,-0.004 0.50139,-1.29354 z"
       id="path4045"
       inkscape:connector-curvature="0"
       inkscape:export-filename="C:\Users\dcolgan\Desktop\Art\LudumDare31\rect4197.png"
       inkscape:export-xdpi="89.193573"
       inkscape:export-ydpi="89.193573" />
    <path
       style="fill:#ffffff;fill-opacity:1;stroke:none;stroke-width:0.10000000000000001;stroke-miterlimit:4;stroke-opacity:1;stroke-dasharray:none;stroke-dashoffset:0"
       d="m 96.4519,484.43927 3.3902,0.0256 -1.89726,3.14963 3.80008,0.0366 -1.80075,2.85696 0.28165,0.16449 1.79246,-2.84514 1.86203,3.15821 1.95095,-3.20474 1.75239,3.02259 0.28405,-0.15664 -1.71999,-2.96683 3.7141,0.0202 -1.87808,-3.20989 3.60768,-5.9e-4 -10e-4,-0.31719 -3.57078,8.8e-4 1.88891,-3.12983 -3.80009,-0.0326 1.71166,-3.00433 -0.28991,-0.15661 -1.6951,2.98068 -1.86205,-3.15425 -1.93844,3.17708 -1.78636,-2.86425 -0.28003,0.16442 1.76206,2.82444 -3.7387,-0.0163 1.86181,3.18591 -3.39837,-0.0257 -0.003,0.3172 z m 2.15533,-3.12787 3.3411,0.0172 1.25167,2.0038 -0.5063,0.27374 -0.008,0.56294 -2.41862,-0.0183 -1.65947,-2.83949 z m -0.0409,5.96287 1.69375,-2.80622 2.41864,0.0183 -0.008,0.55105 0.52655,0.30533 -1.23651,1.96517 -3.39421,-0.0336 z m 3.67805,-6.08207 1.72261,-2.82584 1.66377,2.81573 -1.14671,2.01739 -0.49798,-0.28924 -0.49807,0.26982 -1.24362,-1.98786 z m -0.0146,6.30008 1.24894,-1.98492 0.46125,0.26518 0.55159,-0.29715 1.13724,1.95932 -1.74335,2.85738 -1.65567,-2.79981 z m 1.01306,-2.77966 0.009,-0.78499 0.70802,-0.38715 0.69801,0.40174 -0.009,0.78895 -0.70804,0.38319 -0.69798,-0.40174 z m 1.52289,-1.34846 1.14661,-2.00948 3.3738,0.0294 -1.68545,2.79042 -2.35322,0.003 0.008,-0.53124 -0.48984,-0.28121 z m 0.0139,1.95876 0.4528,-0.24637 0.008,-0.58277 2.33269,-0.003 1.67163,2.85545 -3.30009,-0.0133 -1.16553,-2.01109 z"
       id="path4155"
       inkscape:connector-curvature="0"
       inkscape:export-filename="C:\Users\dcolgan\Desktop\Art\LudumDare31\rect4197.png"
       inkscape:export-xdpi="89.193573"
       inkscape:export-ydpi="89.193573" />
    <path
       style="fill:#ffffff;fill-opacity:1;stroke:none;stroke-width:0.10000000000000001;stroke-miterlimit:4;stroke-opacity:1;stroke-dasharray:none;stroke-dashoffset:0"
       d="m 75.95698,477.42775 -1.86178,0.74907 0.009,1.2659 -1.00654,0.40231 0.009,0.98457 -0.92007,0.0232 -0.98493,0.0329 -0.0585,-0.98456 -0.97564,-0.36967 0.11111,-1.37705 -1.85253,-0.69346 -0.318,2.08363 1.03741,0.62476 -0.17299,1.12523 0.83365,0.50045 -0.46933,0.90607 -0.43841,0.86356 -0.85526,-0.45138 -0.79348,0.71309 -1.06828,-0.7916 -1.4913,1.35416 1.54379,1.33132 1.02814,-0.63785 0.83362,0.71962 0.7966,-0.4939 0.53413,0.9322 0.45696,0.78835 -0.76572,0.53643 0.18528,1.08599 -1.18251,0.58551 0.36122,2.04436 1.86178,-0.74903 -0.009,-1.26589 1.00654,-0.40235 -0.009,-0.91262 1.03126,-0.023 0.87994,-0.0294 0.0526,0.90605 0.97564,0.3729 -0.1111,1.3771 1.85252,0.69019 0.31802,-2.08037 -1.03741,-0.62475 0.17298,-1.12524 -0.72249,-0.43177 0.46622,-0.9028 0.4446,-0.87665 0.741,0.38928 0.79351,-0.7098 1.0683,0.79159 1.49437,-1.35424 -1.5438,-1.33456 -1.03121,0.64113 -0.83056,-0.71964 -0.74719,0.46448 -0.47546,-0.83083 -0.52181,-0.89297 0.71941,-0.50702 -0.18529,-1.0827 1.18254,-0.58553 -0.36123,-2.04437 z m -2.37122,4.47148 0.71013,1.2299 0.70086,1.23644 -0.65147,1.2659 -0.66073,1.26259 -1.3616,0.0361 -1.3616,0.026 -0.71013,-1.2299 -0.70087,-1.23642 0.65148,-1.26917 0.66072,-1.25932 1.36161,-0.0393 1.3616,-0.0232 z"
       id="rect4197"
       inkscape:connector-curvature="0"
       inkscape:export-xdpi="89.193573"
       inkscape:export-ydpi="89.193573" />
    <rect
       style="fill:none;fill-opacity:1;stroke:#000000"
       id="rect4268"
       width="128"
       height="48"
       x="32"
       y="460.36218" />
  </g>
</svg>
